<svg width="20" height="25" viewBox="0 0 20 25" fill="none" xmlns="http://www.w3.org/2000/svg">
<g filter="url(#filter0_d)">
<path fill-rule="evenodd" clip-rule="evenodd" d="M5.36612 1.61612C5.85427 1.12796 6.64573 1.12796 7.13388 1.61612L14.6339 9.11612C15.122 9.60427 15.122 10.3957 14.6339 10.8839L7.13388 18.3839C6.64573 18.872 5.85427 18.872 5.36612 18.3839C4.87796 17.8957 4.87796 17.1043 5.36612 16.6161L11.9822 10L5.36612 3.38388C4.87796 2.89573 4.87796 2.10427 5.36612 1.61612Z" fill="#828282"/>
<path fill-rule="evenodd" clip-rule="evenodd" d="M5.36612 1.61612C5.85427 1.12796 6.64573 1.12796 7.13388 1.61612L14.6339 9.11612C15.122 9.60427 15.122 10.3957 14.6339 10.8839L7.13388 18.3839C6.64573 18.872 5.85427 18.872 5.36612 18.3839C4.87796 17.8957 4.87796 17.1043 5.36612 16.6161L11.9822 10L5.36612 3.38388C4.87796 2.89573 4.87796 2.10427 5.36612 1.61612Z" stroke="url(#paint0_linear)" stroke-linecap="round" stroke-linejoin="round"/>
</g>
<defs>
<filter id="filter0_d" x="0.5" y="0.75" width="19" height="26.5" filterUnits="userSpaceOnUse" color-interpolation-filters="sRGB">
<feFlood flood-opacity="0" result="BackgroundImageFix"/>
<feColorMatrix in="SourceAlpha" type="matrix" values="0 0 0 0 0 0 0 0 0 0 0 0 0 0 0 0 0 0 127 0"/>
<feOffset dy="4"/>
<feGaussianBlur stdDeviation="2"/>
<feColorMatrix type="matrix" values="0 0 0 0 0 0 0 0 0 0 0 0 0 0 0 0 0 0 0.25 0"/>
<feBlend mode="normal" in2="BackgroundImageFix" result="effect1_dropShadow"/>
<feBlend mode="normal" in="SourceGraphic" in2="effect1_dropShadow" result="shape"/>
</filter>
<linearGradient id="paint0_linear" x1="10" y1="1.25" x2="10" y2="18.75" gradientUnits="userSpaceOnUse">
<stop stop-color="white"/>
<stop offset="1" stop-color="white" stop-opacity="0"/>
</linearGradient>
</defs>
</svg>
