<svg width="20" height="25" fill="none" xmlns="http://www.w3.org/2000/svg"><g filter="url(#prefix__a)" clip-rule="evenodd"><path fill-rule="evenodd" d="M5.366 1.616a1.25 1.25 0 0 1 1.768 0l7.5 7.5a1.25 1.25 0 0 1 0 1.768l-7.5 7.5a1.25 1.25 0 0 1-1.768-1.768L11.982 10 5.366 3.384a1.25 1.25 0 0 1 0-1.768z" fill="#828282"/><path d="M5.366 1.616a1.25 1.25 0 0 1 1.768 0l7.5 7.5a1.25 1.25 0 0 1 0 1.768l-7.5 7.5a1.25 1.25 0 0 1-1.768-1.768L11.982 10 5.366 3.384a1.25 1.25 0 0 1 0-1.768z" stroke="url(#prefix__b)" stroke-linecap="round" stroke-linejoin="round"/></g><defs><linearGradient id="prefix__b" x1="10" y1="1.25" x2="10" y2="18.75" gradientUnits="userSpaceOnUse"><stop stop-color="#fff"/><stop offset="1" stop-color="#fff" stop-opacity="0"/></linearGradient><filter id="prefix__a" x=".5" y=".75" width="19" height="26.5" filterUnits="userSpaceOnUse" color-interpolation-filters="sRGB"><feFlood flood-opacity="0" result="BackgroundImageFix"/><feColorMatrix in="SourceAlpha" values="0 0 0 0 0 0 0 0 0 0 0 0 0 0 0 0 0 0 127 0"/><feOffset dy="4"/><feGaussianBlur stdDeviation="2"/><feColorMatrix values="0 0 0 0 0 0 0 0 0 0 0 0 0 0 0 0 0 0 0.25 0"/><feBlend in2="BackgroundImageFix" result="effect1_dropShadow"/><feBlend in="SourceGraphic" in2="effect1_dropShadow" result="shape"/></filter></defs></svg>